<svg width="2500" height="1750" viewBox="0 0 2500 1750" xmlns="http://www.w3.org/2000/svg" role="img">
<title>Yonatan Valencia — Skills × Projects Knowledge Graph</title>
<desc>Mapa de relaciones entre categorías de skills, habilidades específicas y proyectos profesionales</desc>
<defs>
<style>
@import url('https://fonts.googleapis.com/css2?family=JetBrains+Mono:wght@400;500;600;700&amp;display=swap');
.bg { fill: #0B0D14; }
text { font-family: 'JetBrains Mono', monospace; }
.title-main { font-size: 23px; font-weight: 700; fill: #E8E6F0; letter-spacing: -0.01em; }
.title-sub  { font-size: 12.5px; font-weight: 400; fill: #8B87A8; }
.cat-label  { font-size: 13.5px; font-weight: 700; }
.skill-label{ font-size: 10.5px; font-weight: 500; fill: #C5C3D8; }
.proj-label { font-size: 11.5px; font-weight: 600; fill: #E8E6F0; }
.proj-sub   { font-size: 9.5px;  font-weight: 400; fill: #8B87A8; }
.legend-txt { font-size: 11.5px; font-weight: 500; fill: #C5C3D8; }
.node-halo  { opacity: 0.16; }
.pulse { animation: pulse 3s ease-in-out infinite; }
@keyframes pulse {
  0%, 100% { opacity: 0.45; r: var(--r0); }
  50%      { opacity: 0.08; r: var(--r1); }
}
.fadein { animation: fadein 0.9s ease both; }
@keyframes fadein { from { opacity: 0; } to { opacity: 1; } }
</style>
<filter id="softGlow" x="-60%" y="-60%" width="220%" height="220%">
  <feGaussianBlur stdDeviation="6" result="blur"/>
  <feMerge>
    <feMergeNode in="blur"/>
    <feMergeNode in="SourceGraphic"/>
  </feMerge>
</filter>
</defs>
<rect width="2500" height="1750" class="bg"/>

<text x="40" y="48" class="title-main">Skills</text>
<text x="40" y="76" class="title-main">× Projects</text>
<text x="40" y="100" class="title-sub">Knowledge Graph</text>
<text x="40" y="128" class="title-sub" fill="#5C5878">Yonatan Valencia</text>
<g class="edges fadein"><line x1="882.2" y1="1203.8" x2="1308.8" y2="1023.4" stroke="#6C63FF" stroke-width="1" stroke-opacity="0.30"/><line x1="928.8" y1="807.9" x2="1308.8" y2="1023.4" stroke="#6C63FF" stroke-width="1" stroke-opacity="0.30"/><line x1="1149.9" y1="1472.9" x2="1308.8" y2="1023.4" stroke="#6C63FF" stroke-width="1" stroke-opacity="0.30"/><line x1="1026.0" y1="1423.1" x2="1308.8" y2="1023.4" stroke="#6C63FF" stroke-width="1" stroke-opacity="0.30"/><line x1="908.2" y1="1368.8" x2="1308.8" y2="1023.4" stroke="#6C63FF" stroke-width="1" stroke-opacity="0.30"/><line x1="802.1" y1="1090.2" x2="1308.8" y2="1023.4" stroke="#6C63FF" stroke-width="1" stroke-opacity="0.30"/><line x1="749.4" y1="1238.0" x2="1308.8" y2="1023.4" stroke="#6C63FF" stroke-width="1" stroke-opacity="0.30"/><line x1="1755.3" y1="1031.0" x2="1148.4" y2="952.7" stroke="#CC342D" stroke-width="1" stroke-opacity="0.30"/><line x1="1566.0" y1="1281.3" x2="1148.4" y2="952.7" stroke="#CC342D" stroke-width="1" stroke-opacity="0.30"/><line x1="1289.0" y1="1397.1" x2="1148.4" y2="952.7" stroke="#CC342D" stroke-width="1" stroke-opacity="0.30"/><line x1="1103.1" y1="682.1" x2="1148.4" y2="952.7" stroke="#CC342D" stroke-width="1" stroke-opacity="0.30"/><line x1="564.6" y1="1115.7" x2="1148.4" y2="952.7" stroke="#CC342D" stroke-width="1" stroke-opacity="0.30"/><line x1="501.8" y1="995.5" x2="1148.4" y2="952.7" stroke="#CC342D" stroke-width="1" stroke-opacity="0.30"/><line x1="694.7" y1="529.3" x2="1148.4" y2="811.2" stroke="#61DAFB" stroke-width="1" stroke-opacity="0.30"/><line x1="715.6" y1="849.4" x2="1148.4" y2="811.2" stroke="#61DAFB" stroke-width="1" stroke-opacity="0.30"/><line x1="561.0" y1="688.4" x2="1148.4" y2="811.2" stroke="#61DAFB" stroke-width="1" stroke-opacity="0.30"/><line x1="1479.4" y1="1170.1" x2="1308.8" y2="740.4" stroke="#4169E1" stroke-width="1" stroke-opacity="0.30"/><line x1="827.4" y1="588.1" x2="1308.8" y2="740.4" stroke="#4169E1" stroke-width="1" stroke-opacity="0.30"/><line x1="1061.6" y1="350.7" x2="1308.8" y2="740.4" stroke="#4169E1" stroke-width="1" stroke-opacity="0.30"/><line x1="910.2" y1="395.6" x2="1308.8" y2="740.4" stroke="#4169E1" stroke-width="1" stroke-opacity="0.30"/><line x1="1528.8" y1="282.1" x2="1308.8" y2="740.4" stroke="#4169E1" stroke-width="1" stroke-opacity="0.30"/><line x1="1684.8" y1="337.9" x2="1308.8" y2="740.4" stroke="#4169E1" stroke-width="1" stroke-opacity="0.30"/><line x1="1256.1" y1="454.0" x2="1469.3" y2="811.2" stroke="#FF9900" stroke-width="1" stroke-opacity="0.30"/><line x1="1446.7" y1="434.6" x2="1469.3" y2="811.2" stroke="#FF9900" stroke-width="1" stroke-opacity="0.30"/><line x1="1353.1" y1="351.4" x2="1469.3" y2="811.2" stroke="#FF9900" stroke-width="1" stroke-opacity="0.30"/><line x1="1430.0" y1="1062.7" x2="1469.3" y2="811.2" stroke="#FF9900" stroke-width="1" stroke-opacity="0.30"/><line x1="1819.2" y1="646.5" x2="1469.3" y2="811.2" stroke="#FF9900" stroke-width="1" stroke-opacity="0.30"/><line x1="2111.1" y1="843.0" x2="1469.3" y2="811.2" stroke="#FF9900" stroke-width="1" stroke-opacity="0.30"/><line x1="1852.0" y1="486.0" x2="1469.3" y2="811.2" stroke="#FF9900" stroke-width="1" stroke-opacity="0.30"/><line x1="1694.7" y1="430.1" x2="1469.3" y2="811.2" stroke="#FF9900" stroke-width="1" stroke-opacity="0.30"/><line x1="1996.6" y1="572.0" x2="1469.3" y2="811.2" stroke="#FF9900" stroke-width="1" stroke-opacity="0.30"/><line x1="2086.4" y1="1094.2" x2="1469.3" y2="952.7" stroke="#00AB44" stroke-width="1" stroke-opacity="0.30"/><line x1="2049.9" y1="986.9" x2="1469.3" y2="952.7" stroke="#00AB44" stroke-width="1" stroke-opacity="0.30"/><line x1="1942.7" y1="1094.5" x2="1469.3" y2="952.7" stroke="#00AB44" stroke-width="1" stroke-opacity="0.30"/><line x1="1940.5" y1="809.3" x2="1469.3" y2="952.7" stroke="#00AB44" stroke-width="1" stroke-opacity="0.30"/><line x1="1919.4" y1="1207.1" x2="1469.3" y2="952.7" stroke="#00AB44" stroke-width="1" stroke-opacity="0.30"/><line x1="1829.7" y1="1288.1" x2="1469.3" y2="952.7" stroke="#00AB44" stroke-width="1" stroke-opacity="0.30"/><line x1="1707.7" y1="1373.9" x2="1469.3" y2="952.7" stroke="#00AB44" stroke-width="1" stroke-opacity="0.30"/><line x1="1495.9" y1="1409.6" x2="1469.3" y2="952.7" stroke="#00AB44" stroke-width="1" stroke-opacity="0.30"/><line x1="630.9" y1="923.1" x2="827.4" y2="588.1" stroke="#4169E1" stroke-width="1" stroke-opacity="0.16"/><line x1="630.9" y1="923.1" x2="802.1" y2="1090.2" stroke="#6C63FF" stroke-width="1" stroke-opacity="0.16"/><line x1="630.9" y1="923.1" x2="1430.0" y2="1062.7" stroke="#FF9900" stroke-width="1" stroke-opacity="0.16"/><line x1="630.9" y1="923.1" x2="882.2" y2="1203.8" stroke="#6C63FF" stroke-width="1" stroke-opacity="0.16"/><line x1="630.9" y1="923.1" x2="928.8" y2="807.9" stroke="#6C63FF" stroke-width="1" stroke-opacity="0.16"/><line x1="630.9" y1="923.1" x2="694.7" y2="529.3" stroke="#61DAFB" stroke-width="1" stroke-opacity="0.16"/><line x1="630.9" y1="923.1" x2="561.0" y2="688.4" stroke="#61DAFB" stroke-width="1" stroke-opacity="0.16"/><line x1="630.9" y1="923.1" x2="564.6" y2="1115.7" stroke="#CC342D" stroke-width="1" stroke-opacity="0.16"/><line x1="630.9" y1="923.1" x2="749.4" y2="1238.0" stroke="#6C63FF" stroke-width="1" stroke-opacity="0.16"/><line x1="1111.6" y1="1228.9" x2="1149.9" y2="1472.9" stroke="#6C63FF" stroke-width="1" stroke-opacity="0.16"/><line x1="1111.6" y1="1228.9" x2="882.2" y2="1203.8" stroke="#6C63FF" stroke-width="1" stroke-opacity="0.16"/><line x1="1111.6" y1="1228.9" x2="928.8" y2="807.9" stroke="#6C63FF" stroke-width="1" stroke-opacity="0.16"/><line x1="1111.6" y1="1228.9" x2="1755.3" y2="1031.0" stroke="#CC342D" stroke-width="1" stroke-opacity="0.16"/><line x1="1111.6" y1="1228.9" x2="715.6" y2="849.4" stroke="#61DAFB" stroke-width="1" stroke-opacity="0.16"/><line x1="1111.6" y1="1228.9" x2="1566.0" y2="1281.3" stroke="#CC342D" stroke-width="1" stroke-opacity="0.16"/><line x1="1111.6" y1="1228.9" x2="1479.4" y2="1170.1" stroke="#4169E1" stroke-width="1" stroke-opacity="0.16"/><line x1="1111.6" y1="1228.9" x2="1289.0" y2="1397.1" stroke="#CC342D" stroke-width="1" stroke-opacity="0.16"/><line x1="1111.6" y1="1228.9" x2="1026.0" y2="1423.1" stroke="#6C63FF" stroke-width="1" stroke-opacity="0.16"/><line x1="1111.6" y1="1228.9" x2="908.2" y2="1368.8" stroke="#6C63FF" stroke-width="1" stroke-opacity="0.16"/><line x1="1589.8" y1="1570.9" x2="1755.3" y2="1031.0" stroke="#CC342D" stroke-width="1" stroke-opacity="0.16"/><line x1="1589.8" y1="1570.9" x2="1566.0" y2="1281.3" stroke="#CC342D" stroke-width="1" stroke-opacity="0.16"/><line x1="1589.8" y1="1570.9" x2="1479.4" y2="1170.1" stroke="#4169E1" stroke-width="1" stroke-opacity="0.16"/><line x1="1589.8" y1="1570.9" x2="1289.0" y2="1397.1" stroke="#CC342D" stroke-width="1" stroke-opacity="0.16"/><line x1="1589.8" y1="1570.9" x2="1495.9" y2="1409.6" stroke="#00AB44" stroke-width="1" stroke-opacity="0.16"/><line x1="1589.8" y1="1570.9" x2="1829.7" y2="1288.1" stroke="#00AB44" stroke-width="1" stroke-opacity="0.16"/><line x1="2288.2" y1="1275.1" x2="1755.3" y2="1031.0" stroke="#CC342D" stroke-width="1" stroke-opacity="0.16"/><line x1="2288.2" y1="1275.1" x2="1566.0" y2="1281.3" stroke="#CC342D" stroke-width="1" stroke-opacity="0.16"/><line x1="2288.2" y1="1275.1" x2="1829.7" y2="1288.1" stroke="#00AB44" stroke-width="1" stroke-opacity="0.16"/><line x1="2288.2" y1="1275.1" x2="2111.1" y2="843.0" stroke="#FF9900" stroke-width="1" stroke-opacity="0.16"/><line x1="1885.7" y1="1560.3" x2="1755.3" y2="1031.0" stroke="#CC342D" stroke-width="1" stroke-opacity="0.16"/><line x1="1885.7" y1="1560.3" x2="1707.7" y2="1373.9" stroke="#00AB44" stroke-width="1" stroke-opacity="0.16"/><line x1="1885.7" y1="1560.3" x2="1289.0" y2="1397.1" stroke="#CC342D" stroke-width="1" stroke-opacity="0.16"/><line x1="1885.7" y1="1560.3" x2="1829.7" y2="1288.1" stroke="#00AB44" stroke-width="1" stroke-opacity="0.16"/><line x1="1885.7" y1="1560.3" x2="1479.4" y2="1170.1" stroke="#4169E1" stroke-width="1" stroke-opacity="0.16"/><line x1="1696.0" y1="899.1" x2="1755.3" y2="1031.0" stroke="#CC342D" stroke-width="1" stroke-opacity="0.16"/><line x1="1696.0" y1="899.1" x2="1103.1" y2="682.1" stroke="#CC342D" stroke-width="1" stroke-opacity="0.16"/><line x1="1696.0" y1="899.1" x2="1479.4" y2="1170.1" stroke="#4169E1" stroke-width="1" stroke-opacity="0.16"/><line x1="1696.0" y1="899.1" x2="1829.7" y2="1288.1" stroke="#00AB44" stroke-width="1" stroke-opacity="0.16"/><line x1="1696.0" y1="899.1" x2="1430.0" y2="1062.7" stroke="#FF9900" stroke-width="1" stroke-opacity="0.16"/><line x1="1696.0" y1="899.1" x2="1819.2" y2="646.5" stroke="#FF9900" stroke-width="1" stroke-opacity="0.16"/><line x1="2079.4" y1="1307.3" x2="1755.3" y2="1031.0" stroke="#CC342D" stroke-width="1" stroke-opacity="0.16"/><line x1="2079.4" y1="1307.3" x2="1566.0" y2="1281.3" stroke="#CC342D" stroke-width="1" stroke-opacity="0.16"/><line x1="2079.4" y1="1307.3" x2="1430.0" y2="1062.7" stroke="#FF9900" stroke-width="1" stroke-opacity="0.16"/><line x1="2079.4" y1="1307.3" x2="2049.9" y2="986.9" stroke="#00AB44" stroke-width="1" stroke-opacity="0.16"/><line x1="2079.4" y1="1307.3" x2="2086.4" y2="1094.2" stroke="#00AB44" stroke-width="1" stroke-opacity="0.16"/><line x1="2079.4" y1="1307.3" x2="1942.7" y2="1094.5" stroke="#00AB44" stroke-width="1" stroke-opacity="0.16"/><line x1="2079.4" y1="1307.3" x2="1919.4" y2="1207.1" stroke="#00AB44" stroke-width="1" stroke-opacity="0.16"/><line x1="2025.4" y1="337.6" x2="1755.3" y2="1031.0" stroke="#CC342D" stroke-width="1" stroke-opacity="0.16"/><line x1="2025.4" y1="337.6" x2="1852.0" y2="486.0" stroke="#FF9900" stroke-width="1" stroke-opacity="0.16"/><line x1="2025.4" y1="337.6" x2="1528.8" y2="282.1" stroke="#4169E1" stroke-width="1" stroke-opacity="0.16"/><line x1="2025.4" y1="337.6" x2="1694.7" y2="430.1" stroke="#FF9900" stroke-width="1" stroke-opacity="0.16"/><line x1="2025.4" y1="337.6" x2="1996.6" y2="572.0" stroke="#FF9900" stroke-width="1" stroke-opacity="0.16"/><line x1="2257.9" y1="488.4" x2="1755.3" y2="1031.0" stroke="#CC342D" stroke-width="1" stroke-opacity="0.16"/><line x1="2257.9" y1="488.4" x2="1996.6" y2="572.0" stroke="#FF9900" stroke-width="1" stroke-opacity="0.16"/><line x1="2257.9" y1="488.4" x2="1694.7" y2="430.1" stroke="#FF9900" stroke-width="1" stroke-opacity="0.16"/><line x1="2257.9" y1="488.4" x2="1684.8" y2="337.9" stroke="#4169E1" stroke-width="1" stroke-opacity="0.16"/><line x1="1083.2" y1="231.2" x2="1256.1" y2="454.0" stroke="#FF9900" stroke-width="1" stroke-opacity="0.16"/><line x1="1083.2" y1="231.2" x2="1446.7" y2="434.6" stroke="#FF9900" stroke-width="1" stroke-opacity="0.16"/><line x1="1083.2" y1="231.2" x2="1353.1" y2="351.4" stroke="#FF9900" stroke-width="1" stroke-opacity="0.16"/><line x1="1083.2" y1="231.2" x2="1694.7" y2="430.1" stroke="#FF9900" stroke-width="1" stroke-opacity="0.16"/><line x1="1083.2" y1="231.2" x2="928.8" y2="807.9" stroke="#6C63FF" stroke-width="1" stroke-opacity="0.16"/><line x1="1083.2" y1="231.2" x2="694.7" y2="529.3" stroke="#61DAFB" stroke-width="1" stroke-opacity="0.16"/></g>
<g class="fadein">
  <circle cx="1308.8" cy="1023.4" r="48" fill="#6C63FF" class="node-halo pulse"
          style="--r0:48px; --r1:60px; transform-origin:1308.8px 1023.4px;"/>
  <circle cx="1308.8" cy="1023.4" r="34" fill="#6C63FF" fill-opacity="0.16"
          stroke="#6C63FF" stroke-width="2.4" filter="url(#softGlow)"/>
</g>
<g class="fadein">
  <circle cx="1148.4" cy="952.7" r="48" fill="#CC342D" class="node-halo pulse"
          style="--r0:48px; --r1:60px; transform-origin:1148.4px 952.7px;"/>
  <circle cx="1148.4" cy="952.7" r="34" fill="#CC342D" fill-opacity="0.16"
          stroke="#CC342D" stroke-width="2.4" filter="url(#softGlow)"/>
</g>
<g class="fadein">
  <circle cx="1148.4" cy="811.2" r="48" fill="#61DAFB" class="node-halo pulse"
          style="--r0:48px; --r1:60px; transform-origin:1148.4px 811.2px;"/>
  <circle cx="1148.4" cy="811.2" r="34" fill="#61DAFB" fill-opacity="0.16"
          stroke="#61DAFB" stroke-width="2.4" filter="url(#softGlow)"/>
</g>
<g class="fadein">
  <circle cx="1308.8" cy="740.4" r="48" fill="#4169E1" class="node-halo pulse"
          style="--r0:48px; --r1:60px; transform-origin:1308.8px 740.4px;"/>
  <circle cx="1308.8" cy="740.4" r="34" fill="#4169E1" fill-opacity="0.16"
          stroke="#4169E1" stroke-width="2.4" filter="url(#softGlow)"/>
</g>
<g class="fadein">
  <circle cx="1469.3" cy="811.2" r="48" fill="#FF9900" class="node-halo pulse"
          style="--r0:48px; --r1:60px; transform-origin:1469.3px 811.2px;"/>
  <circle cx="1469.3" cy="811.2" r="34" fill="#FF9900" fill-opacity="0.16"
          stroke="#FF9900" stroke-width="2.4" filter="url(#softGlow)"/>
</g>
<g class="fadein">
  <circle cx="1469.3" cy="952.7" r="48" fill="#00AB44" class="node-halo pulse"
          style="--r0:48px; --r1:60px; transform-origin:1469.3px 952.7px;"/>
  <circle cx="1469.3" cy="952.7" r="34" fill="#00AB44" fill-opacity="0.16"
          stroke="#00AB44" stroke-width="2.4" filter="url(#softGlow)"/>
</g><g class="fadein"><circle cx="882.2" cy="1203.8" r="11.3" fill="#6C63FF" fill-opacity="0.88" stroke="#0B0D14" stroke-width="1.4"/><circle cx="928.8" cy="807.9" r="13.2" fill="#6C63FF" fill-opacity="0.88" stroke="#0B0D14" stroke-width="1.4"/><circle cx="1149.9" cy="1472.9" r="9.4" fill="#6C63FF" fill-opacity="0.88" stroke="#0B0D14" stroke-width="1.4"/><circle cx="1026.0" cy="1423.1" r="9.4" fill="#6C63FF" fill-opacity="0.88" stroke="#0B0D14" stroke-width="1.4"/><circle cx="908.2" cy="1368.8" r="9.4" fill="#6C63FF" fill-opacity="0.88" stroke="#0B0D14" stroke-width="1.4"/><circle cx="802.1" cy="1090.2" r="9.4" fill="#6C63FF" fill-opacity="0.88" stroke="#0B0D14" stroke-width="1.4"/><circle cx="749.4" cy="1238.0" r="9.4" fill="#6C63FF" fill-opacity="0.88" stroke="#0B0D14" stroke-width="1.4"/><circle cx="1755.3" cy="1031.0" r="18.9" fill="#CC342D" fill-opacity="0.88" stroke="#0B0D14" stroke-width="1.4"/><circle cx="1566.0" cy="1281.3" r="15.1" fill="#CC342D" fill-opacity="0.88" stroke="#0B0D14" stroke-width="1.4"/><circle cx="1289.0" cy="1397.1" r="13.2" fill="#CC342D" fill-opacity="0.88" stroke="#0B0D14" stroke-width="1.4"/><circle cx="1103.1" cy="682.1" r="9.4" fill="#CC342D" fill-opacity="0.88" stroke="#0B0D14" stroke-width="1.4"/><circle cx="564.6" cy="1115.7" r="9.4" fill="#CC342D" fill-opacity="0.88" stroke="#0B0D14" stroke-width="1.4"/><circle cx="501.8" cy="995.5" r="7.5" fill="#CC342D" fill-opacity="0.88" stroke="#0B0D14" stroke-width="1.4"/><circle cx="694.7" cy="529.3" r="11.3" fill="#61DAFB" fill-opacity="0.88" stroke="#0B0D14" stroke-width="1.4"/><circle cx="715.6" cy="849.4" r="9.4" fill="#61DAFB" fill-opacity="0.88" stroke="#0B0D14" stroke-width="1.4"/><circle cx="561.0" cy="688.4" r="9.4" fill="#61DAFB" fill-opacity="0.88" stroke="#0B0D14" stroke-width="1.4"/><circle cx="1479.4" cy="1170.1" r="15.1" fill="#4169E1" fill-opacity="0.88" stroke="#0B0D14" stroke-width="1.4"/><circle cx="827.4" cy="588.1" r="9.4" fill="#4169E1" fill-opacity="0.88" stroke="#0B0D14" stroke-width="1.4"/><circle cx="1061.6" cy="350.7" r="7.5" fill="#4169E1" fill-opacity="0.88" stroke="#0B0D14" stroke-width="1.4"/><circle cx="910.2" cy="395.6" r="7.5" fill="#4169E1" fill-opacity="0.88" stroke="#0B0D14" stroke-width="1.4"/><circle cx="1528.8" cy="282.1" r="9.4" fill="#4169E1" fill-opacity="0.88" stroke="#0B0D14" stroke-width="1.4"/><circle cx="1684.8" cy="337.9" r="9.4" fill="#4169E1" fill-opacity="0.88" stroke="#0B0D14" stroke-width="1.4"/><circle cx="1256.1" cy="454.0" r="9.4" fill="#FF9900" fill-opacity="0.88" stroke="#0B0D14" stroke-width="1.4"/><circle cx="1446.7" cy="434.6" r="9.4" fill="#FF9900" fill-opacity="0.88" stroke="#0B0D14" stroke-width="1.4"/><circle cx="1353.1" cy="351.4" r="9.4" fill="#FF9900" fill-opacity="0.88" stroke="#0B0D14" stroke-width="1.4"/><circle cx="1430.0" cy="1062.7" r="13.2" fill="#FF9900" fill-opacity="0.88" stroke="#0B0D14" stroke-width="1.4"/><circle cx="1819.2" cy="646.5" r="9.4" fill="#FF9900" fill-opacity="0.88" stroke="#0B0D14" stroke-width="1.4"/><circle cx="2111.1" cy="843.0" r="9.4" fill="#FF9900" fill-opacity="0.88" stroke="#0B0D14" stroke-width="1.4"/><circle cx="1852.0" cy="486.0" r="9.4" fill="#FF9900" fill-opacity="0.88" stroke="#0B0D14" stroke-width="1.4"/><circle cx="1694.7" cy="430.1" r="13.2" fill="#FF9900" fill-opacity="0.88" stroke="#0B0D14" stroke-width="1.4"/><circle cx="1996.6" cy="572.0" r="11.3" fill="#FF9900" fill-opacity="0.88" stroke="#0B0D14" stroke-width="1.4"/><circle cx="2086.4" cy="1094.2" r="9.4" fill="#00AB44" fill-opacity="0.88" stroke="#0B0D14" stroke-width="1.4"/><circle cx="2049.9" cy="986.9" r="9.4" fill="#00AB44" fill-opacity="0.88" stroke="#0B0D14" stroke-width="1.4"/><circle cx="1942.7" cy="1094.5" r="9.4" fill="#00AB44" fill-opacity="0.88" stroke="#0B0D14" stroke-width="1.4"/><circle cx="1940.5" cy="809.3" r="7.5" fill="#00AB44" fill-opacity="0.88" stroke="#0B0D14" stroke-width="1.4"/><circle cx="1919.4" cy="1207.1" r="9.4" fill="#00AB44" fill-opacity="0.88" stroke="#0B0D14" stroke-width="1.4"/><circle cx="1829.7" cy="1288.1" r="15.1" fill="#00AB44" fill-opacity="0.88" stroke="#0B0D14" stroke-width="1.4"/><circle cx="1707.7" cy="1373.9" r="9.4" fill="#00AB44" fill-opacity="0.88" stroke="#0B0D14" stroke-width="1.4"/><circle cx="1495.9" cy="1409.6" r="9.4" fill="#00AB44" fill-opacity="0.88" stroke="#0B0D14" stroke-width="1.4"/></g><g class="fadein"><rect x="-32.3" y="-32.3" width="64.6" height="64.6" rx="4" transform="translate(630.9,923.1) rotate(45)" fill="#161B22" stroke="#E8E6F0" stroke-width="1.4" fill-opacity="0.92"/><rect x="-34.0" y="-34.0" width="68.0" height="68.0" rx="4" transform="translate(1111.6,1228.9) rotate(45)" fill="#161B22" stroke="#E8E6F0" stroke-width="1.4" fill-opacity="0.92"/><rect x="-27.2" y="-27.2" width="54.4" height="54.4" rx="4" transform="translate(1589.8,1570.9) rotate(45)" fill="#161B22" stroke="#E8E6F0" stroke-width="1.4" fill-opacity="0.92"/><rect x="-23.8" y="-23.8" width="47.6" height="47.6" rx="4" transform="translate(2288.2,1275.1) rotate(45)" fill="#161B22" stroke="#E8E6F0" stroke-width="1.4" fill-opacity="0.92"/><rect x="-25.5" y="-25.5" width="51.0" height="51.0" rx="4" transform="translate(1885.7,1560.3) rotate(45)" fill="#161B22" stroke="#E8E6F0" stroke-width="1.4" fill-opacity="0.92"/><rect x="-27.2" y="-27.2" width="54.4" height="54.4" rx="4" transform="translate(1696.0,899.1) rotate(45)" fill="#161B22" stroke="#E8E6F0" stroke-width="1.4" fill-opacity="0.92"/><rect x="-28.9" y="-28.9" width="57.8" height="57.8" rx="4" transform="translate(2079.4,1307.3) rotate(45)" fill="#161B22" stroke="#E8E6F0" stroke-width="1.4" fill-opacity="0.92"/><rect x="-25.5" y="-25.5" width="51.0" height="51.0" rx="4" transform="translate(2025.4,337.6) rotate(45)" fill="#161B22" stroke="#E8E6F0" stroke-width="1.4" fill-opacity="0.92"/><rect x="-23.8" y="-23.8" width="47.6" height="47.6" rx="4" transform="translate(2257.9,488.4) rotate(45)" fill="#161B22" stroke="#E8E6F0" stroke-width="1.4" fill-opacity="0.92"/><rect x="-27.2" y="-27.2" width="54.4" height="54.4" rx="4" transform="translate(1083.2,231.2) rotate(45)" fill="#161B22" stroke="#E8E6F0" stroke-width="1.4" fill-opacity="0.92"/></g><g class="fadein"><rect x="1255.6" y="960.9" width="106.4" height="17.5" rx="3" fill="#0B0D14" fill-opacity="0.72"/><text x="1308.8" y="973.4" text-anchor="middle" class="cat-label" fill="#6C63FF">AI &amp; Agentic</text><rect x="1086.8" y="890.2" width="123.2" height="17.5" rx="3" fill="#0B0D14" fill-opacity="0.72"/><text x="1148.4" y="902.7" text-anchor="middle" class="cat-label" fill="#CC342D">Backend &amp; Core</text><rect x="1111.9" y="748.7" width="73.0" height="17.5" rx="3" fill="#0B0D14" fill-opacity="0.72"/><text x="1148.4" y="761.2" text-anchor="middle" class="cat-label" fill="#61DAFB">Frontend</text><rect x="1268.2" y="677.9" width="81.3" height="17.5" rx="3" fill="#0B0D14" fill-opacity="0.72"/><text x="1308.8" y="690.4" text-anchor="middle" class="cat-label" fill="#4169E1">Databases</text><rect x="1407.7" y="748.7" width="123.2" height="17.5" rx="3" fill="#0B0D14" fill-opacity="0.72"/><text x="1469.3" y="761.2" text-anchor="middle" class="cat-label" fill="#FF9900">Cloud &amp; DevOps</text><rect x="1382.6" y="890.2" width="173.4" height="17.5" rx="3" fill="#0B0D14" fill-opacity="0.72"/><text x="1469.3" y="902.7" text-anchor="middle" class="cat-label" fill="#00AB44">Monitoring &amp; Integr.</text><rect x="898.5" y="1197.3" width="64.6" height="14.5" rx="3" fill="#0B0D14" fill-opacity="0.72"/><text x="901.5" y="1206.8" text-anchor="start" class="skill-label">LangChain</text><rect x="800.4" y="801.4" width="110.2" height="14.5" rx="3" fill="#0B0D14" fill-opacity="0.72"/><text x="907.6" y="810.9" text-anchor="end" class="skill-label">Anthropic Claude</text><rect x="1164.3" y="1466.4" width="97.1" height="14.5" rx="3" fill="#0B0D14" fill-opacity="0.72"/><text x="1167.3" y="1475.9" text-anchor="start" class="skill-label">Amazon Bedrock</text><rect x="888.4" y="1416.6" width="123.2" height="14.5" rx="3" fill="#0B0D14" fill-opacity="0.72"/><text x="1008.6" y="1426.1" text-anchor="end" class="skill-label">Prompt Engineering</text><rect x="922.6" y="1362.3" width="116.7" height="14.5" rx="3" fill="#0B0D14" fill-opacity="0.72"/><text x="925.6" y="1371.8" text-anchor="start" class="skill-label">Agentic Workflows</text><rect x="762.2" y="1083.7" width="25.5" height="14.5" rx="3" fill="#0B0D14" fill-opacity="0.72"/><text x="784.7" y="1093.2" text-anchor="end" class="skill-label">n8n</text><rect x="763.8" y="1231.5" width="129.7" height="14.5" rx="3" fill="#0B0D14" fill-opacity="0.72"/><text x="766.8" y="1241.0" text-anchor="start" class="skill-label">RAG / Vector Search</text><rect x="1640.7" y="1024.5" width="90.6" height="14.5" rx="3" fill="#0B0D14" fill-opacity="0.72"/><text x="1728.4" y="1034.0" text-anchor="end" class="skill-label">Ruby on Rails</text><rect x="1586.1" y="1274.8" width="38.5" height="14.5" rx="3" fill="#0B0D14" fill-opacity="0.72"/><text x="1589.1" y="1284.3" text-anchor="start" class="skill-label">RSpec</text><rect x="1219.2" y="1390.6" width="51.6" height="14.5" rx="3" fill="#0B0D14" fill-opacity="0.72"/><text x="1267.8" y="1400.1" text-anchor="end" class="skill-label">Sidekiq</text><rect x="1117.5" y="675.6" width="90.6" height="14.5" rx="3" fill="#0B0D14" fill-opacity="0.72"/><text x="1120.5" y="685.1" text-anchor="start" class="skill-label">Microservices</text><rect x="498.7" y="1109.2" width="51.6" height="14.5" rx="3" fill="#0B0D14" fill-opacity="0.72"/><text x="547.2" y="1118.7" text-anchor="end" class="skill-label">Node.js</text><rect x="514.3" y="989.0" width="51.6" height="14.5" rx="3" fill="#0B0D14" fill-opacity="0.72"/><text x="517.3" y="998.5" text-anchor="start" class="skill-label">GraphQL</text><rect x="639.8" y="522.8" width="38.5" height="14.5" rx="3" fill="#0B0D14" fill-opacity="0.72"/><text x="675.4" y="532.3" text-anchor="end" class="skill-label">React</text><rect x="730.0" y="842.9" width="45.1" height="14.5" rx="3" fill="#0B0D14" fill-opacity="0.72"/><text x="733.0" y="852.4" text-anchor="start" class="skill-label">Vue.js</text><rect x="475.5" y="681.9" width="71.1" height="14.5" rx="3" fill="#0B0D14" fill-opacity="0.72"/><text x="543.6" y="691.4" text-anchor="end" class="skill-label">TypeScript</text><rect x="1499.5" y="1163.6" width="71.1" height="14.5" rx="3" fill="#0B0D14" fill-opacity="0.72"/><text x="1502.5" y="1173.1" text-anchor="start" class="skill-label">PostgreSQL</text><rect x="722.4" y="581.6" width="90.6" height="14.5" rx="3" fill="#0B0D14" fill-opacity="0.72"/><text x="810.0" y="591.1" text-anchor="end" class="skill-label">MongoDB Atlas</text><rect x="1074.1" y="344.2" width="38.5" height="14.5" rx="3" fill="#0B0D14" fill-opacity="0.72"/><text x="1077.1" y="353.7" text-anchor="start" class="skill-label">Redis</text><rect x="859.1" y="389.1" width="38.5" height="14.5" rx="3" fill="#0B0D14" fill-opacity="0.72"/><text x="894.7" y="398.6" text-anchor="end" class="skill-label">MySQL</text><rect x="1543.2" y="275.6" width="90.6" height="14.5" rx="3" fill="#0B0D14" fill-opacity="0.72"/><text x="1546.2" y="285.1" text-anchor="start" class="skill-label">Oracle PL/SQL</text><rect x="1579.8" y="331.4" width="90.6" height="14.5" rx="3" fill="#0B0D14" fill-opacity="0.72"/><text x="1667.4" y="340.9" text-anchor="end" class="skill-label">MS SQL Server</text><rect x="1270.5" y="447.5" width="45.1" height="14.5" rx="3" fill="#0B0D14" fill-opacity="0.72"/><text x="1273.5" y="457.0" text-anchor="start" class="skill-label">Docker</text><rect x="1367.7" y="428.1" width="64.6" height="14.5" rx="3" fill="#0B0D14" fill-opacity="0.72"/><text x="1429.3" y="437.6" text-anchor="end" class="skill-label">Portainer</text><rect x="1367.5" y="344.9" width="123.2" height="14.5" rx="3" fill="#0B0D14" fill-opacity="0.72"/><text x="1370.5" y="354.4" text-anchor="start" class="skill-label">Cloudflare Tunnels</text><rect x="1386.3" y="1056.2" width="25.5" height="14.5" rx="3" fill="#0B0D14" fill-opacity="0.72"/><text x="1408.8" y="1065.7" text-anchor="end" class="skill-label">AWS</text><rect x="1833.6" y="640.0" width="45.1" height="14.5" rx="3" fill="#0B0D14" fill-opacity="0.72"/><text x="1836.6" y="649.5" text-anchor="start" class="skill-label">Heroku</text><rect x="2071.2" y="836.5" width="25.5" height="14.5" rx="3" fill="#0B0D14" fill-opacity="0.72"/><text x="2093.7" y="846.0" text-anchor="end" class="skill-label">GCP</text><rect x="1866.4" y="479.5" width="84.1" height="14.5" rx="3" fill="#0B0D14" fill-opacity="0.72"/><text x="1869.4" y="489.0" text-anchor="start" class="skill-label">Oracle Cloud</text><rect x="1638.0" y="423.6" width="38.5" height="14.5" rx="3" fill="#0B0D14" fill-opacity="0.72"/><text x="1673.5" y="433.1" text-anchor="end" class="skill-label">Nginx</text><rect x="2012.9" y="565.5" width="175.3" height="14.5" rx="3" fill="#0B0D14" fill-opacity="0.72"/><text x="2015.9" y="575.0" text-anchor="start" class="skill-label">Legacy Ops (Apache/CentOS)</text><rect x="2020.4" y="1087.7" width="51.6" height="14.5" rx="3" fill="#0B0D14" fill-opacity="0.72"/><text x="2069.0" y="1097.2" text-anchor="end" class="skill-label">Datadog</text><rect x="2064.3" y="980.4" width="64.6" height="14.5" rx="3" fill="#0B0D14" fill-opacity="0.72"/><text x="2067.3" y="989.9" text-anchor="start" class="skill-label">New Relic</text><rect x="1876.8" y="1088.0" width="51.6" height="14.5" rx="3" fill="#0B0D14" fill-opacity="0.72"/><text x="1925.3" y="1097.5" text-anchor="end" class="skill-label">Grafana</text><rect x="1953.0" y="802.8" width="45.1" height="14.5" rx="3" fill="#0B0D14" fill-opacity="0.72"/><text x="1956.0" y="812.3" text-anchor="start" class="skill-label">Sentry</text><rect x="1840.4" y="1200.6" width="64.6" height="14.5" rx="3" fill="#0B0D14" fill-opacity="0.72"/><text x="1902.0" y="1210.1" text-anchor="end" class="skill-label">PagerDuty</text><rect x="1849.8" y="1281.6" width="103.7" height="14.5" rx="3" fill="#0B0D14" fill-opacity="0.72"/><text x="1852.8" y="1291.1" text-anchor="start" class="skill-label">CI/CD Pipelines</text><rect x="1648.2" y="1367.4" width="45.1" height="14.5" rx="3" fill="#0B0D14" fill-opacity="0.72"/><text x="1690.3" y="1376.9" text-anchor="end" class="skill-label">Twilio</text><rect x="1510.3" y="1403.1" width="123.2" height="14.5" rx="3" fill="#0B0D14" fill-opacity="0.72"/><text x="1513.3" y="1412.6" text-anchor="start" class="skill-label">SOAP / SSO Integr.</text><rect x="553.1" y="961.9" width="155.7" height="15.5" rx="3" fill="#0B0D14" fill-opacity="0.72"/><text x="630.9" y="972.4" text-anchor="middle" class="proj-label">Dojo / Node.js AI Pod</text><rect x="563.1" y="976.9" width="135.6" height="13.5" rx="3" fill="#0B0D14" fill-opacity="0.72"/><text x="630.9" y="985.4" text-anchor="middle" class="proj-sub">Globant · 2025–Present</text><rect x="1012.3" y="1269.4" width="198.5" height="15.5" rx="3" fill="#0B0D14" fill-opacity="0.72"/><text x="1111.6" y="1279.9" text-anchor="middle" class="proj-label">Solara · Panorama Education</text><rect x="1052.6" y="1284.4" width="117.9" height="13.5" rx="3" fill="#0B0D14" fill-opacity="0.72"/><text x="1111.6" y="1292.9" text-anchor="middle" class="proj-sub">Globant · 2024–2025</text><rect x="1494.1" y="1604.6" width="191.4" height="15.5" rx="3" fill="#0B0D14" fill-opacity="0.72"/><text x="1589.8" y="1615.1" text-anchor="middle" class="proj-label">Atria · Groove Point &amp; SCF</text><rect x="1530.8" y="1619.6" width="117.9" height="13.5" rx="3" fill="#0B0D14" fill-opacity="0.72"/><text x="1589.8" y="1628.1" text-anchor="middle" class="proj-sub">Globant · 2023–2024</text><rect x="2224.6" y="1305.4" width="127.2" height="15.5" rx="3" fill="#0B0D14" fill-opacity="0.72"/><text x="2288.2" y="1315.9" text-anchor="middle" class="proj-label">GoNoodle Platform</text><rect x="2244.0" y="1320.4" width="88.5" height="13.5" rx="3" fill="#0B0D14" fill-opacity="0.72"/><text x="2288.2" y="1328.9" text-anchor="middle" class="proj-sub">Globant · 2023</text><rect x="1768.6" y="1592.3" width="234.2" height="15.5" rx="3" fill="#0B0D14" fill-opacity="0.72"/><text x="1885.7" y="1602.8" text-anchor="middle" class="proj-label">Atria · Commissions &amp; Money Mvmt</text><rect x="1826.7" y="1607.3" width="117.9" height="13.5" rx="3" fill="#0B0D14" fill-opacity="0.72"/><text x="1885.7" y="1615.8" text-anchor="middle" class="proj-sub">Globant · 2021–2023</text><rect x="1628.9" y="932.8" width="134.3" height="15.5" rx="3" fill="#0B0D14" fill-opacity="0.72"/><text x="1696.0" y="943.3" text-anchor="middle" class="proj-label">Skydropx Migration</text><rect x="1634.1" y="947.8" width="123.8" height="13.5" rx="3" fill="#0B0D14" fill-opacity="0.72"/><text x="1696.0" y="956.3" text-anchor="middle" class="proj-sub">Skydropx · 2022–2023</text><rect x="2019.4" y="1342.7" width="120.1" height="15.5" rx="3" fill="#0B0D14" fill-opacity="0.72"/><text x="2079.4" y="1353.2" text-anchor="middle" class="proj-label">Runa HR Platform</text><rect x="2029.3" y="1357.7" width="100.2" height="13.5" rx="3" fill="#0B0D14" fill-opacity="0.72"/><text x="2079.4" y="1366.2" text-anchor="middle" class="proj-sub">Runa · 2019–2021</text><rect x="1929.8" y="369.6" width="191.4" height="15.5" rx="3" fill="#0B0D14" fill-opacity="0.72"/><text x="2025.4" y="380.1" text-anchor="middle" class="proj-label">Sapiencia (Minotauro/SIIS)</text><rect x="1960.6" y="384.6" width="129.7" height="13.5" rx="3" fill="#0B0D14" fill-opacity="0.72"/><text x="2025.4" y="393.1" text-anchor="middle" class="proj-sub">Sapiencia · 2018–2019</text><rect x="2158.7" y="518.7" width="198.5" height="15.5" rx="3" fill="#0B0D14" fill-opacity="0.72"/><text x="2257.9" y="529.2" text-anchor="middle" class="proj-label">Red Coopcentral Banking App</text><rect x="2190.2" y="533.7" width="135.6" height="13.5" rx="3" fill="#0B0D14" fill-opacity="0.72"/><text x="2257.9" y="542.2" text-anchor="middle" class="proj-sub">Visionamos · 2014–2017</text><rect x="1001.7" y="264.9" width="162.9" height="15.5" rx="3" fill="#0B0D14" fill-opacity="0.72"/><text x="1083.2" y="275.4" text-anchor="middle" class="proj-label">Home Lab (self-hosted)</text><rect x="1015.4" y="279.9" width="135.6" height="13.5" rx="3" fill="#0B0D14" fill-opacity="0.72"/><text x="1083.2" y="288.4" text-anchor="middle" class="proj-sub">Personal · AI-assisted</text></g><g class="fadein"><rect x="24" y="1460" width="250" height="200" rx="10" fill="#11141d" stroke="#262b3a" stroke-width="1"/><text x="40" y="1480" class="legend-txt" font-weight="700" fill="#E8E6F0">Categorías</text><circle cx="48" cy="1506" r="6.5" fill="#6C63FF"/><text x="64" y="1510" class="legend-txt">AI &amp; Agentic</text><circle cx="48" cy="1532" r="6.5" fill="#CC342D"/><text x="64" y="1536" class="legend-txt">Backend &amp; Core</text><circle cx="48" cy="1558" r="6.5" fill="#61DAFB"/><text x="64" y="1562" class="legend-txt">Frontend</text><circle cx="48" cy="1584" r="6.5" fill="#4169E1"/><text x="64" y="1588" class="legend-txt">Databases</text><circle cx="48" cy="1610" r="6.5" fill="#FF9900"/><text x="64" y="1614" class="legend-txt">Cloud &amp; DevOps</text><circle cx="48" cy="1636" r="6.5" fill="#00AB44"/><text x="64" y="1640" class="legend-txt">Monitoring &amp; Integr.</text><g transform="translate(48,1668)"><rect x="-6" y="-6" width="12" height="12" rx="2" transform="rotate(45)" fill="#161B22" stroke="#E8E6F0" stroke-width="1.2"/><text x="16" y="4" class="legend-txt">Proyecto</text></g></g>
<text x="40" y="1698" class="title-sub" fill="#5C5878">tamaño de nodo =</text>
<text x="40" y="1714" class="title-sub" fill="#5C5878">nº de proyectos donde</text>
<text x="40" y="1730" class="title-sub" fill="#5C5878">se usó esa skill</text>
</svg>